<svg width="600" height="250" xmlns="http://www.w3.org/2000/svg">
 <style type="text/css">.st0{fill:#15496B;}
	.st1{fill:#911A1D;}</style>

 <g>
  <title>background</title>
  <rect fill="none" id="canvas_background" height="252" width="602" y="-1" x="-1"/>
 </g>
 <g>
  <title>Layer 1</title>
  <g id="svg_1">
   <polygon id="svg_2" points="269.9660949707031,74.48844909667969 406.4482116699219,55.50202941894531 406.4482116699219,55.50202941894531 269.9660949707031,74.48844909667969 " class="st0"/>
   <path id="svg_3" d="m146.349762,51.870193c-0.150528,-0.395554 -0.301056,-0.827118 -0.451431,-1.258606c-12.414307,6.6884 -20.239098,18.842606 -23.737717,32.111511c10.307678,-4.710693 20.878662,-8.522354 31.675278,-11.327164c-2.971924,-7.695236 -7.48613,-19.489807 -7.48613,-19.525742z" class="st1"/>
   <path id="svg_4" d="m157.334473,51.870193c-0.601913,-1.582214 -1.203873,-3.344238 -1.542419,-5.178131c-1.391861,0.395554 -2.708542,0.791107 -3.949966,1.222595c-1.015778,0.359619 -2.031448,0.791107 -3.009583,1.222595c0.188187,0.575363 0.376221,1.114792 0.601913,1.654144c0.075302,0.17981 4.664871,12.15419 7.561493,19.777512c2.294708,-0.539352 4.589508,-1.078796 6.921875,-1.54628c-2.896606,-7.443497 -6.508011,-16.936691 -6.583313,-17.152435z" class="st1"/>
   <path id="svg_5" d="m167.115463,68.447342c3.837082,-0.719238 7.711868,-1.330521 11.586609,-1.797958l7.937714,-1.042862l8.388992,-0.395538l3.423355,-0.107864c-2.482895,-8.342499 -5.19133,-15.570313 -15.799957,-18.95047c-7.147629,-2.265381 -15.950592,-1.905838 -23.66246,-0.215744c0.300903,1.690079 0.865295,3.380157 1.42955,4.890427c-0.037552,0.036011 3.423355,9.025787 6.696198,17.62001z" class="st1"/>
   <path id="svg_6" d="m333.504791,100.199219c0.827637,0.395569 1.617584,0.755157 2.407593,1.150726c1.316681,0.647232 2.633362,1.258514 3.950104,1.833878l6.357605,2.265442l3.385712,1.258545c17.191956,-1.006851 34.346252,-2.013702 51.538208,-3.020554c22.571472,-1.33046 45.255768,-2.66098 67.413391,-6.940079c23.850464,-4.602768 46.53476,-12.657608 65.645355,-27.077194l6.733704,-8.126801c-79.639557,8.23468 -159.279266,16.433334 -238.918823,24.667969l4.439056,1.905792l27.048096,12.082275z" class="st0"/>
   <path id="svg_7" d="m149.171173,131.447632c3.761917,-0.755157 7.636703,-1.006851 11.473785,-1.510284c3.837234,-0.431549 7.674362,-0.934967 11.511444,-1.114777l11.586761,-0.898987l11.624268,-0.359543c7.787186,-0.431488 15.574265,-0.03595 23.474274,-0.071945c7.900055,0 15.724792,0.827057 23.85054,0.647308c-7.523834,-2.625061 -15.160492,-5.106201 -23.022888,-6.86821c-7.900055,-1.438385 -15.837616,-3.236343 -23.925705,-3.667847c-16.138626,-1.869873 -32.465286,-0.827042 -48.566284,1.186661c-16.100967,2.301392 -31.863373,6.652466 -46.760574,12.765488c-14.859543,6.113037 -29.117126,13.952148 -40.816708,24.596008c14.671459,-6.220917 29.418133,-11.147339 44.315334,-15.282623c7.48613,-2.013702 14.934753,-3.955505 22.496201,-5.46579c3.79953,-0.683167 7.561401,-1.546219 11.323318,-2.301376l11.436234,-1.654083z" class="st0"/>
   <path id="svg_8" d="m474.463654,141.767914c4.702332,-2.660995 9.367065,-5.250046 13.693237,-8.522324c4.439178,-3.020554 8.614838,-6.364731 12.564728,-9.996643c7.900116,-7.227753 15.198242,-15.138748 20.540161,-24.380249c-17.342468,11.183289 -35.700439,18.159348 -54.133911,22.366547c-18.43338,4.20723 -36.979553,5.142181 -55.224823,3.703781c-18.282867,-1.04277 -36.227264,-5.933228 -53.870636,-11.255157c-2.332367,-0.934952 -4.702393,-1.762009 -7.03476,-2.589066c-2.031464,-0.755157 -4.062775,-1.510254 -6.094238,-2.265411l-4.40152,-1.582214l-2.181854,-0.791107c-2.144318,-0.898987 -4.288605,-2.013702 -6.432831,-2.984604l-6.771515,-3.020554l-6.207092,-2.76886l-13.994324,-6.292862c-3.197632,-1.366409 -6.395294,-2.732849 -9.592834,-4.099319c-0.263397,-0.10788 -0.489075,-0.215744 -0.752411,-0.323624c-1.768127,-0.755096 -3.536224,-1.474335 -5.304291,-2.193527c-4.73996,-1.905823 -9.555298,-3.667831 -14.520935,-4.998306l-5.680511,-1.725998l-7.749542,-2.337372l-2.069,-0.611313c0,0 0,0 0,0c-3.498688,-0.719177 -6.997253,-1.366425 -10.495773,-2.049652c-1.805771,-0.359589 -3.611404,-0.755157 -5.417175,-1.042831c-2.2948,-0.503433 -4.627167,-0.898972 -6.959534,-1.258545c-3.686752,-0.539413 -7.373306,-0.898972 -11.09758,-1.222641l0.488953,-0.251694l-1.880981,-3.452103l-8.125702,-15.030869c-4.288559,-10.571983 -9.178986,-17.044632 -14.520935,-19.238129c-2.633408,-1.078735 -4.55191,-0.71917 -5.304291,-0.53936c-2.106674,0.143806 -4.251007,0.215744 -6.395187,0.287666c-2.21965,-0.71917 -3.912445,-0.503426 -4.552002,-0.287666c-4.62709,0.287666 -9.329468,0.395538 -13.88147,0.50341c-4.062836,0.107887 -8.125748,0.17981 -12.150925,0.395554c-3.874741,0.215744 -9.705765,0.539375 -12.865784,5.393875c-2.746231,4.207199 -1.768066,9.169571 -0.300858,13.268906c0.150391,0.431488 0.300858,0.862976 0.451385,1.25853c0.037659,0.071945 4.55191,11.866516 7.448532,19.525833c0.489029,1.25853 0.94046,2.409241 1.279114,3.380142c-9.931458,2.55307 -19.599625,5.969193 -28.891479,10.104523c-1.692856,0.755096 -3.423363,1.474335 -5.116211,2.301361c-0.940468,0.467499 -1.9562,0.827057 -2.896667,1.294525c-4.777649,2.265442 -9.329559,5.070251 -13.881462,7.659317c-4.4767,2.80481 -8.878128,5.753418 -13.091431,8.917847c-1.24147,0.970901 -2.445236,1.941757 -3.686661,2.948608c-1.504814,1.222672 -3.009529,2.445267 -4.476692,3.739777c-0.75238,0.647232 -1.467163,1.258545 -2.181938,1.905838c-1.241417,1.114716 -2.482841,2.265442 -3.686653,3.452042c-1.918594,1.869873 -3.761871,3.775711 -5.529984,5.789413c-1.128601,1.294525 -2.294762,2.553116 -3.38575,3.883575c2.783844,-1.258545 5.60524,-2.337311 8.426697,-3.452042c7.110008,-2.876724 14.257584,-5.46579 21.405258,-7.587372c5.530029,-1.654129 11.060059,-3.056519 16.590042,-4.315063c3.348099,-0.755157 6.733803,-1.546265 10.119507,-2.157578c4.815254,-0.898987 9.668114,-1.690094 14.483376,-2.337326c12.715256,-1.690079 25.392914,-2.265442 37.957642,-1.833923c1.279083,0.035965 2.595764,0 3.874802,0.071915l6.959534,0.143829l6.319977,0.755157l0.601944,0.071915c4.627182,0.575317 9.21669,0.755112 13.806259,1.5103c0.827591,0.179794 1.655243,0.323608 2.482895,0.503403c6.094238,1.222595 12.188522,2.085632 18.245148,3.488052c2.181976,0.503403 4.326309,1.07872 6.470505,1.761948c4.175781,1.186661 8.389084,2.229507 12.602432,3.272308c0.263351,0.071915 0.564255,0.143875 0.827591,0.215744l13.204361,4.782562c8.915741,2.66098 17.4552,6.796265 26.032379,10.643921l28.590515,12.226059c2.48291,1.006851 4.965759,2.085632 7.486206,2.984604l7.749481,2.373322c5.191467,1.546219 10.345276,3.200348 15.536713,4.638687c21.104401,4.602768 42.848206,7.910995 64.592072,5.501755c21.706146,-1.977753 43.036255,-7.839066 61.95871,-18.231247zm-316.188721,-67.782913c-0.376205,-0.970901 -0.827591,-2.121567 -1.316681,-3.416092c-2.896622,-7.623322 -7.486176,-19.561768 -7.56134,-19.777512c-0.188187,-0.539352 -0.413879,-1.078781 -0.601959,-1.654144c-1.128601,-3.344162 -1.805725,-7.191818 0.150421,-10.176422c2.106781,-3.236298 5.906204,-3.703789 10.307693,-3.955467c0,0 0.037552,0 0.037552,0c-0.789993,0.647232 -1.504715,1.366463 -2.106674,2.301384c-1.918488,2.948616 -1.993805,6.256897 -1.391891,9.385315c0.338547,1.833893 0.940506,3.559982 1.542419,5.178131c0.075211,0.215744 3.724258,9.708939 6.54567,17.152435c0.451523,1.222672 0.902954,2.373306 1.316727,3.416168c-2.332367,0.467438 -4.627075,1.006851 -6.921936,1.546204zm41.230637,-5.321915c-1.42955,0.035919 -2.859116,0.107864 -4.288513,0.143799l-8.012878,0.359604l-7.975266,1.042801c-3.611496,0.431549 -7.185226,1.006851 -10.759109,1.654144c-0.413727,-1.114731 -0.865265,-2.265442 -1.316696,-3.416092c-3.272827,-8.594223 -6.733749,-17.584 -6.733749,-17.655945c-0.564346,-1.510269 -1.128647,-3.200363 -1.42955,-4.890427c-0.451385,-2.409256 -0.338516,-4.89045 0.978027,-6.94014c2.106674,-3.236298 5.90625,-3.703789 10.307724,-3.955467c4.025177,-0.215744 8.050446,-0.323616 12.075699,-0.395554c2.257156,-0.035934 4.551865,-0.107872 6.884232,-0.17981c3.009628,1.222595 7.787186,5.214066 12.82814,17.583992l6.921921,12.837433l1.956253,3.631836c-3.874893,-0.07193 -7.674316,0.03595 -11.436234,0.179825zm15.122833,0.071915l-2.031464,-3.7397l-7.67421,-14.239838c-3.160019,-7.767174 -6.65863,-13.304855 -10.382904,-16.577141c0.639572,-0.035942 1.316696,-0.035942 1.956161,-0.107872l0.45137,-0.10788c0.075317,-0.035934 7.674362,-2.301376 15.950592,18.051483l7.260483,13.48465l2.031464,3.739746c-2.48288,-0.143875 -5.040939,-0.3237 -7.561493,-0.503448z" class="st0"/>
   <path id="svg_9" d="m21.980997,199.30249c4.175718,0 7.072407,1.797943 8.689997,5.429779l7.486229,-2.66098c-2.89669,-6.220886 -8.200933,-9.349335 -15.837664,-9.349335c-5.191401,0 -9.29188,1.258545 -12.301414,3.811646c-3.009535,2.553131 -4.514278,5.789429 -4.514278,9.780884c0,2.337341 0.564251,4.351044 1.692851,6.077087c1.128575,1.690094 2.595712,3.020569 4.363826,3.883606c1.805696,0.898987 4.514278,1.833893 8.125671,2.840729c2.595737,0.719208 4.36385,1.258606 5.229055,1.618164c0.865278,0.395538 1.580006,0.934967 2.144329,1.690063s0.865231,1.618164 0.865231,2.589081c0,1.761993 -0.752384,3.308228 -2.257128,4.674683s-3.837156,2.049652 -6.959562,2.049652c-5.454745,0 -9.103818,-2.265411 -10.909515,-6.832214l-7.448623,2.517151c2.708581,7.263702 8.69002,10.859619 17.869077,10.859619c5.943832,0 10.458111,-1.438324 13.542908,-4.351074c3.084724,-2.912659 4.627125,-6.328766 4.627125,-10.320221c0,-1.761993 -0.413799,-3.452026 -1.203766,-5.034241s-2.031487,-2.912689 -3.649075,-3.991455c-1.617636,-1.078827 -3.348095,-1.833984 -5.153839,-2.337372l-6.244738,-1.761993c-2.219568,-0.611298 -3.799574,-1.294525 -4.740042,-2.121613c-0.940492,-0.827057 -1.429481,-1.869843 -1.429481,-3.164368c0,-1.690094 0.714705,-3.092468 2.10665,-4.243195s3.38563,-1.654083 5.906176,-1.654083z" class="st0"/>
   <polygon id="svg_10" points="52.41483688354492,218.43267822265625 69.53155517578125,218.43267822265625 70.69770812988281,211.96002197265625 53.54341125488281,211.96002197265625 55.53723907470703,200.66888427734375 76.1900863647461,200.66888427734375 77.39390563964844,193.83670043945312 48.540069580078125,193.83670043945312 40.90338897705078,237.455078125 70.58489227294922,237.455078125 71.78865814208984,230.62283325195312 50.270530700683594,230.62283325195312 " class="st0"/>
   <path id="svg_11" d="m95.451111,193.8367l-21.856689,43.618378l7.711876,0l5.078606,-10.536041l16.552437,0l1.880936,10.536041l9.141426,0l-8.351433,-43.618378l-10.157158,0zm-6.244804,27.005249l9.40477,-19.381958l3.573837,19.381958l-12.978607,0z" class="st0"/>
   <path id="svg_12" d="m164.519745,214.656982c-1.617584,-1.078796 -3.34819,-1.833954 -5.153809,-2.337372l-6.244766,-1.761963c-2.219543,-0.611328 -3.799576,-1.294556 -4.740097,-2.121582c-0.94046,-0.827087 -1.429504,-1.869873 -1.429504,-3.164429c0,-1.690063 0.714783,-3.092468 2.106781,-4.243195s3.385696,-1.726013 5.943756,-1.726013c4.175644,0 7.072403,1.797943 8.689987,5.42981l7.486191,-2.66095c-2.896622,-6.220886 -8.200958,-9.349365 -15.837616,-9.349365c-5.191467,0 -9.291962,1.258575 -12.301392,3.811615c-3.009628,2.553162 -4.514359,5.789429 -4.514359,9.780914c0,2.337372 0.564255,4.351074 1.692902,6.077087c1.12851,1.690063 2.595718,3.020538 4.363831,3.883575c1.805618,0.898987 4.514206,1.833893 8.125641,2.840759c2.595718,0.719238 4.363831,1.258575 5.22908,1.618195c0.865311,0.395538 1.580078,0.934906 2.144333,1.690063s0.865158,1.618164 0.865158,2.58902c0,1.762024 -0.752289,3.308289 -2.25705,4.674683s-3.837234,2.049713 -6.959549,2.049713c-5.454803,0 -9.103867,-2.265442 -10.909531,-6.832275l-7.448624,2.517212c2.708588,7.263672 8.690002,10.859589 17.86908,10.859589c5.943756,0 10.458099,-1.438354 13.542908,-4.351044c3.084793,-2.912659 4.627075,-6.328827 4.627075,-10.320282c0,-1.761932 -0.413773,-3.452026 -1.20372,-5.034241c-0.827652,-1.510254 -2.069016,-2.840759 -3.686707,-3.919525z" class="st0"/>
   <path id="svg_13" d="m191.455032,193.8367l-21.856689,43.618378l7.711884,0l5.078598,-10.536041l16.552338,0l1.880997,10.536041l9.141418,0l-8.388992,-43.618378l-10.119553,0zm-6.244812,27.005249l9.404785,-19.381958l3.573883,19.381958l-12.978668,0z" class="st0"/>
   <polygon id="svg_14" points="244.0465850830078,212.46347045898438 227.68222045898438,212.46347045898438 229.75125122070312,200.66888427734375 249.42608642578125,200.66888427734375 250.62991333007812,193.83670043945312 222.5661163330078,193.83670043945312 214.92941284179688,237.455078125 223.28074645996094,237.455078125 226.5160675048828,218.93612670898438 242.91793823242188,218.93612670898438 " class="st0"/>
   <path id="svg_15" d="m263.834259,193.8367l-21.856689,43.618378l7.711868,0l5.078598,-10.536041l16.552399,0l1.880951,10.536041l9.141418,0l-8.35144,-43.618378l-10.157104,0zm-6.244751,27.005249l9.404755,-19.381958l3.573853,19.381958l-12.978607,0z" class="st0"/>
   <path id="svg_16" d="m320.300446,194.735657c-1.993805,-0.611298 -4.740051,-0.898956 -8.163391,-0.898956l-17.191803,0l-7.636719,43.618378l8.1633,0l3.160004,-17.907684l10.683807,0l4.852905,17.907684l8.727661,0l-5.567688,-18.84256c3.686707,-0.791107 6.395294,-2.409271 8.163391,-4.854523s2.63327,-5.07019 2.63327,-7.94693c0,-2.661011 -0.789978,-5.034302 -2.407562,-7.083954s-3.42337,-3.380157 -5.417175,-3.991455zm-2.370026,16.217529c-1.090942,1.474274 -3.385651,2.229462 -6.884216,2.229462l-11.323425,0l2.257202,-13.017181l8.990906,0c2.106689,0 3.649048,0.179779 4.702393,0.503418s1.956238,1.006836 2.708588,2.013702s1.166138,2.193512 1.166138,3.595917c0.03772,1.654114 -0.488922,3.200409 -1.617584,4.674683z" class="st0"/>
   <polygon id="svg_17" points="331.09710693359375,237.455078125 339.5614318847656,237.455078125 347.1981201171875,193.83670043945312 338.73382568359375,193.83670043945312 " class="st0"/>
   <polygon id="svg_18" points="383.0491027832031,193.83670043945312 374.3591003417969,193.83670043945312 366.7224426269531,237.455078125 394.109130859375,237.455078125 395.31298828125,230.62283325195312 376.57861328125,230.62283325195312 " class="st0"/>
   <polygon id="svg_19" points="400.1658935546875,237.455078125 408.6301574707031,237.455078125 416.266845703125,193.83670043945312 407.80255126953125,193.83670043945312 " class="st0"/>
   <polygon id="svg_20" points="418.67437744140625,237.455078125 448.3182678222656,237.455078125 449.5221252441406,230.62283325195312 428.0039978027344,230.62283325195312 430.1483154296875,218.43267822265625 447.3026428222656,218.43267822265625 448.4311218261719,211.96002197265625 431.3144836425781,211.96002197265625 433.2706298828125,200.66888427734375 453.9236145019531,200.66888427734375 455.1273193359375,193.83670043945312 426.2735290527344,193.83670043945312 " class="st0"/>
   <polygon id="svg_21" points="458.0616455078125,193.83670043945312 456.8578796386719,200.66888427734375 468.4444885253906,200.66888427734375 462.0117492675781,237.455078125 470.400634765625,237.455078125 476.83367919921875,200.66888427734375 488.45794677734375,200.66888427734375 489.6617736816406,193.83670043945312 " class="st0"/>
   <path id="svg_22" d="m515.39325,220.086823c-0.639648,3.559906 -1.316772,6.041107 -2.106689,7.443512s-1.843323,2.445251 -3.23526,3.128479s-3.009552,1.006866 -4.815277,1.006866c-2.069061,0 -3.912292,-0.539429 -5.492371,-1.582214s-2.370026,-2.73288 -2.370026,-5.070251c0,-0.934906 0.263367,-2.80481 0.752441,-5.573669l4.514191,-25.674805l-8.426575,0l-4.401398,25.243317c-0.413879,2.44519 -0.639618,4.494873 -0.639618,6.184967c0,3.380157 0.827667,6.041077 2.520538,8.05484s3.61145,3.344177 5.793243,4.063354c2.181976,0.719147 4.401489,1.078766 6.696198,1.078766c3.686737,0 6.84671,-0.791107 9.480072,-2.409241c2.633301,-1.582214 4.476685,-3.416077 5.454773,-5.429779c0.978088,-2.013763 1.805725,-4.890472 2.445313,-8.594238l4.965637,-28.191986l-6.545715,0l-4.589478,26.322083z" class="st0"/>
   <polygon id="svg_23" points="560.8746948242188,193.83670043945312 545.037109375,228.32144165039062 539.24365234375,193.83670043945312 530.6665649414062,193.83670043945312 538.30322265625,237.455078125 547.4446411132812,237.455078125 568.1351318359375,193.83670043945312 " class="st0"/>
   <path id="svg_24" d="m591.270935,193.8367l-10.119629,0l-21.856689,43.618378l7.711914,0l5.078613,-10.536041l16.552307,0l1.881042,10.536041l9.141541,0l-8.389099,-43.618378zm-16.401917,27.005249l9.404785,-19.381958l3.573792,19.381958l-12.978577,0z" class="st0"/>
   <path id="svg_25" d="m491.768433,43.27597c-5.229126,0.898972 -10.646179,1.797943 -16.025757,2.553055l-69.332031,9.673004l-136.482117,19.022385l-0.978119,0.143829l6.84671,2.049622c6.921906,1.869904 13.580566,4.530899 20.088593,7.299759c0,0 0.300995,-0.035995 0.827637,-0.107925c15.160492,-1.726013 242.342316,-27.868301 243.77182,-28.012115c6.696228,-0.755157 7.59906,-8.845963 6.244751,-15.46241l-0.037598,0.107872c-18.508606,-3.416107 -37.017303,-0.287682 -54.923889,2.732925z" class="st1"/>
   <path id="svg_26" d="m259.99704,71.971298l4.815247,1.438339l0.978119,-0.143784l209.688843,-29.198776c5.342041,-0.755173 10.721497,-1.654152 15.950623,-2.553131c17.83139,-3.020554 36.264771,-6.113029 54.848572,-2.912682c-0.601929,-2.193497 -1.429443,-4.099327 -2.370056,-5.357925c-1.617554,-2.229431 -3.57373,-3.84758 -5.793335,-4.962311c-11.060059,-5.681549 -28.026154,1.006851 -39.161346,2.948624c-20.690582,3.631836 -41.606842,6.364777 -62.410248,9.421265c-3.00946,-6.868149 -6.696167,-13.304863 -11.285706,-18.626785c-4.476685,-5.178131 -12.790466,-13.988098 -18.508545,-6.580521c-3.950073,5.106178 -3.950073,14.563446 -3.536224,21.107964c0.18808,2.984619 0.564301,5.933289 1.053345,8.845963c-20.878571,3.020538 -41.794891,5.969223 -62.673431,8.989761c-1.12851,-2.301361 -2.595734,-5.357925 -2.783752,-5.681534c-2.069122,-3.991455 -4.025269,-8.342476 -6.733856,-12.010315c-1.91864,-2.589066 -5.003296,-6.149033 -8.690033,-5.897301c-4.702393,0.323631 0.413757,5.933235 1.166199,7.407578c2.407684,4.566818 1.429565,9.852806 1.166168,14.743233c-0.037659,1.042801 0.037659,2.373276 -0.037659,3.703796c-1.880951,0.287628 -3.761871,0.539352 -5.642853,0.827042c-1.12851,-2.265442 -2.558075,-5.250061 -2.708588,-5.537735c-2.069031,-3.991455 -4.025177,-8.342484 -6.733765,-12.010315c-1.918579,-2.589066 -5.003387,-6.148979 -8.689972,-5.897301c-4.702393,0.323616 0.413757,5.933289 1.166199,7.407562c2.407532,4.566826 1.429565,9.852821 1.166168,14.743248c-0.037659,1.006851 0.037628,2.337326 -0.037659,3.667862c-2.370026,0.359543 -4.702393,0.719162 -7.072418,1.07872c-1.090851,-2.265381 -3.084656,-6.364731 -3.310486,-6.724335c-2.069031,-3.99147 -4.025177,-8.342484 -6.733765,-12.010323c-1.918579,-2.589066 -5.003387,-6.149033 -8.689972,-5.897285c-4.702393,0.323616 0.413757,5.93322 1.166138,7.407562c2.407593,4.566818 1.429565,9.852798 1.166229,14.743256c-0.075317,1.402405 0.112854,3.380096 -0.188202,5.07019c-11.059875,1.762009 -22.082367,3.595917 -33.104736,5.53772c-0.376205,0.071945 -0.789978,0.143814 -1.166199,0.179825c3.949951,0.755096 7.900055,1.510254 11.812347,2.301361l1.91861,0.431488z" class="st0"/>
  </g>
 </g>
</svg>