<?xml version="1.0" standalone="no"?>
<!DOCTYPE svg PUBLIC "-//W3C//DTD SVG 20010904//EN"
 "http://www.w3.org/TR/2001/REC-SVG-20010904/DTD/svg10.dtd">
<svg version="1.0" xmlns="http://www.w3.org/2000/svg"
 width="2560.000000pt" height="2560.000000pt" viewBox="0 0 2560.000000 2560.000000"
 preserveAspectRatio="xMidYMid meet">
<metadata>
Created by potrace 1.15, written by Peter Selinger 2001-2017
</metadata>
<g transform="translate(0.000000,2560.000000) scale(0.100000,-0.100000)"
fill="#91160d" stroke="none">
<path d="M7255 22541 c-55 -14 -159 -64 -221 -107 -112 -79 -226 -223 -270
-344 -44 -121 -45 -136 -59 -605 -28 -922 -63 -1510 -130 -2195 -162 -1644
-471 -2963 -901 -3848 -198 -409 -379 -682 -608 -920 -163 -169 -389 -319
-531 -353 -27 -7 -66 -16 -86 -20 -50 -12 -118 -74 -145 -133 l-24 -51 0
-1183 c0 -1118 -1 -1183 -17 -1188 -184 -57 -327 -157 -428 -299 -59 -83 -90
-149 -120 -251 l-25 -86 0 -2148 c0 -2110 0 -2148 20 -2226 56 -224 211 -416
416 -518 38 -19 88 -39 112 -45 l42 -12 0 -675 c0 -411 4 -713 11 -772 57
-520 324 -970 739 -1247 213 -142 428 -217 699 -244 71 -8 2270 -11 7090 -11
7552 0 7106 -3 7316 50 581 147 1045 653 1174 1280 35 170 41 307 41 971 l0
647 53 17 c237 77 438 287 507 530 20 69 20 107 20 2245 0 2417 6 2219 -69
2375 -95 199 -272 349 -493 419 -16 5 -18 78 -20 1193 l-3 1188 -22 41 c-45
85 -105 125 -218 149 -173 37 -417 206 -611 423 -808 906 -1325 2790 -1509
5497 -31 468 -65 1284 -65 1586 0 143 -20 279 -59 390 -71 208 -224 371 -426
455 l-70 29 -737 3 -737 2 -73 -25 c-108 -38 -173 -80 -269 -175 -139 -138
-202 -274 -233 -505 -66 -483 -176 -853 -376 -1260 -299 -610 -755 -1132
-1310 -1502 -716 -477 -1560 -664 -2380 -528 -1113 185 -2090 956 -2591 2046
-177 383 -273 713 -338 1159 -16 113 -40 237 -51 275 -73 237 -246 416 -478
496 -52 18 -94 19 -781 18 -399 -1 -739 -4 -756 -8z m1400 -503 c51 -28 104
-89 124 -142 10 -28 26 -109 35 -181 140 -1088 653 -2064 1449 -2757 170 -148
445 -342 652 -460 444 -253 986 -425 1470 -468 72 -7 140 -14 153 -16 l22 -4
0 -1530 0 -1530 -890 0 c-801 0 -894 -2 -923 -16 -62 -32 -99 -67 -123 -118
l-24 -51 0 -916 c0 -1008 -3 -950 62 -1024 17 -20 50 -46 72 -58 l41 -22 893
-3 892 -3 0 -559 0 -560 -3885 0 -3885 0 0 1044 0 1043 77 34 c605 260 1145
1002 1540 2114 474 1335 740 3191 803 5600 8 313 14 400 27 439 20 64 94 139
149 154 26 7 244 10 639 9 538 -2 603 -4 630 -19z m9618 -11 c52 -31 100 -95
117 -157 11 -38 23 -289 40 -820 48 -1471 194 -2811 426 -3890 354 -1652 918
-2781 1636 -3277 82 -57 253 -148 311 -165 l37 -11 0 -1044 0 -1043 -3885 0
-3885 0 0 560 0 560 868 0 c942 0 925 -1 997 54 19 15 47 48 62 74 l28 47 0
930 0 930 -22 40 c-12 22 -36 54 -55 72 -69 66 -16 63 -993 63 l-885 0 0 1533
0 1533 125 12 c541 54 1101 242 1590 535 1109 664 1857 1835 2030 3181 25 191
74 269 195 307 14 4 293 7 620 6 l595 -2 48 -28z m-3753 -8177 l0 -600 -1710
0 -1710 0 0 600 0 600 1710 0 1710 0 0 -600z m-1960 -3340 l0 -610 -892 -2
-893 -3 -40 -22 c-22 -12 -54 -36 -72 -55 -66 -69 -63 -13 -63 -1025 0 -899 0
-918 20 -958 11 -23 37 -58 57 -79 68 -68 37 -66 1010 -66 l873 0 0 -600 0
-600 -4077 2 -4078 3 -42 23 c-64 34 -111 80 -141 136 l-27 51 0 2100 0 2100
22 41 c44 82 99 131 182 160 29 11 803 13 4099 14 l4062 0 0 -610z m8718 576
c60 -33 101 -81 135 -153 l22 -48 0 -2080 0 -2080 -33 -67 c-38 -77 -84 -120
-160 -148 -52 -20 -91 -20 -4112 -20 l-4060 0 0 600 0 600 893 2 c848 3 894 4
927 22 49 26 88 64 113 111 l22 40 0 930 0 930 -28 47 c-31 53 -79 94 -134
114 -31 11 -209 13 -915 14 l-878 0 0 610 0 610 4078 -2 4077 -3 53 -29z
m-6758 -2286 l0 -600 -1710 0 -1710 0 0 600 0 600 1710 0 1710 0 0 -600z
m-1960 -4025 l0 -1205 -3427 2 -3428 3 -90 28 c-207 65 -344 147 -482 288
-150 154 -246 328 -309 560 l-28 104 -4 713 -3 712 3886 0 3885 0 0 -1205z
m8277 503 c-3 -673 -4 -707 -24 -788 -118 -478 -437 -810 -865 -900 -91 -19
-158 -20 -3485 -20 l-3393 0 0 1205 0 1205 3885 0 3886 0 -4 -702z"/>
</g>
</svg>
