<?xml version="1.0" standalone="no"?>
<!DOCTYPE svg PUBLIC "-//W3C//DTD SVG 20010904//EN"
 "http://www.w3.org/TR/2001/REC-SVG-20010904/DTD/svg10.dtd">
<svg version="1.0" xmlns="http://www.w3.org/2000/svg"
 width="2560.000000pt" height="2560.000000pt" viewBox="0 0 2560.000000 2560.000000"
 preserveAspectRatio="xMidYMid meet">
<metadata>
Created by potrace 1.15, written by Peter Selinger 2001-2017
</metadata>
<g transform="translate(0.000000,2560.000000) scale(0.100000,-0.100000)"
fill="#91160d" stroke="none">
<path d="M12170 22544 c-359 -28 -593 -55 -875 -99 -1386 -215 -2704 -729
-3885 -1514 -791 -527 -1535 -1201 -2146 -1947 -1243 -1517 -1993 -3368 -2163
-5344 -32 -365 -41 -968 -21 -1345 63 -1166 320 -2273 778 -3340 89 -208 316
-671 422 -860 562 -1007 1271 -1885 2125 -2630 482 -422 1056 -828 1620 -1147
1541 -872 3320 -1308 5093 -1248 435 14 708 38 1111 96 1312 188 2556 639
3701 1342 903 554 1746 1292 2440 2137 657 800 1202 1745 1575 2730 108 286
225 653 304 955 146 559 229 1056 292 1745 17 185 23 1076 10 1300 -110 1791
-657 3414 -1645 4885 -857 1275 -2004 2327 -3371 3090 -193 108 -654 334 -865
424 -846 361 -1697 593 -2605 711 -417 54 -486 58 -1185 60 -366 1 -685 1
-710 -1z m1265 -853 c1078 -87 2026 -324 2980 -746 151 -67 542 -260 665 -329
245 -138 360 -209 353 -219 -3 -6 -378 -513 -831 -1126 -454 -614 -837 -1141
-851 -1171 -24 -50 -26 -66 -26 -175 0 -114 2 -123 32 -187 79 -167 241 -260
428 -245 156 12 231 62 369 247 56 74 441 594 856 1155 414 561 755 1022 756
1023 7 10 323 -244 554 -447 177 -155 546 -520 703 -694 132 -146 340 -394
442 -528 l77 -100 -38 -57 c-335 -489 -796 -967 -1289 -1337 -460 -344 -1012
-644 -1588 -862 -65 -25 -120 -43 -121 -42 -2 2 -41 51 -87 109 -484 612
-1083 1096 -1774 1434 -1066 522 -2286 651 -3450 366 -750 -183 -1437 -534
-2060 -1051 -221 -184 -558 -536 -744 -776 -35 -46 -65 -83 -67 -83 -10 0
-258 96 -374 145 -578 243 -1132 579 -1590 964 -372 313 -727 702 -1024 1123
l-46 66 92 119 c385 495 843 968 1328 1374 205 171 351 282 359 273 5 -5 384
-518 844 -1139 459 -622 856 -1150 882 -1174 25 -23 76 -57 113 -74 63 -30 74
-32 177 -32 103 0 114 2 178 32 225 107 316 362 209 586 -18 36 -377 531 -855
1177 l-825 1115 42 26 c120 75 337 196 551 305 1117 571 2274 885 3560 964
178 11 919 5 1090 -9z m-8178 -4418 c724 -928 1701 -1658 2853 -2130 74 -30
136 -56 138 -58 1 -1 -23 -54 -53 -117 -74 -156 -162 -380 -224 -571 -398
-1218 -314 -2591 229 -3734 l58 -122 -82 -32 c-1169 -464 -2166 -1199 -2913
-2147 l-82 -103 -39 68 c-166 284 -365 677 -491 966 -854 1967 -964 4173 -311
6212 147 460 329 900 548 1330 109 213 283 525 294 525 3 0 37 -39 75 -87z
m15275 -45 c597 -1043 973 -2170 1117 -3348 49 -403 56 -530 56 -1065 0 -545
-8 -687 -61 -1105 -144 -1149 -514 -2259 -1093 -3277 -51 -90 -96 -163 -101
-163 -4 0 -39 39 -77 87 -722 926 -1708 1660 -2853 2126 -69 27 -128 53 -132
57 -4 3 21 69 56 145 299 658 445 1291 463 2010 19 795 -143 1580 -470 2276
l-55 117 97 37 c580 228 1195 576 1696 960 442 339 898 791 1209 1198 32 42
62 77 66 77 3 0 41 -60 82 -132z m-7232 -212 c814 -102 1536 -405 2170 -910
206 -165 479 -439 656 -661 101 -126 290 -405 366 -540 454 -801 634 -1723
517 -2634 -208 -1627 -1350 -2992 -2919 -3490 -1033 -327 -2181 -239 -3145
242 -195 97 -274 143 -470 273 -619 410 -1116 974 -1444 1639 -226 457 -352
880 -418 1405 -25 197 -25 749 0 950 124 991 550 1861 1244 2541 214 209 375
340 623 504 618 411 1264 631 2050 699 109 9 651 -4 770 -18z m3950 -7361
c222 -93 546 -253 749 -369 738 -423 1402 -1029 1885 -1723 l56 -81 -92 -119
c-118 -153 -253 -314 -402 -483 -165 -187 -558 -577 -754 -748 -163 -143 -508
-422 -520 -422 -4 0 -387 516 -851 1145 -464 630 -864 1163 -888 1186 -122
112 -325 139 -481 63 -74 -36 -161 -124 -196 -197 -41 -88 -53 -194 -32 -288
10 -44 30 -97 48 -125 17 -27 399 -547 849 -1156 451 -609 819 -1110 819
-1115 0 -19 -502 -297 -769 -425 -1065 -512 -2191 -802 -3373 -869 -270 -15
-959 -6 -1203 15 -1173 105 -2227 401 -3245 910 -265 133 -641 343 -655 366
-3 4 369 513 827 1131 506 685 842 1148 860 1187 35 73 47 187 29 271 -70 329
-492 454 -726 216 -27 -28 -425 -560 -884 -1183 -459 -623 -837 -1132 -840
-1132 -4 0 -76 55 -161 123 -575 456 -1071 958 -1528 1546 l-80 103 61 87
c652 925 1524 1619 2605 2074 215 90 347 140 360 136 5 -2 45 -49 87 -104 263
-338 606 -674 954 -936 611 -458 1315 -774 2061 -923 587 -117 1252 -127 1855
-25 1224 205 2347 871 3127 1853 l113 142 135 -52 c74 -28 164 -64 200 -79z"/>
</g>
</svg>
