<?xml version="1.0" encoding="UTF-8" standalone="no"?>
<svg
   xmlns:dc="http://purl.org/dc/elements/1.1/"
   xmlns:cc="http://creativecommons.org/ns#"
   xmlns:rdf="http://www.w3.org/1999/02/22-rdf-syntax-ns#"
   xmlns:svg="http://www.w3.org/2000/svg"
   xmlns="http://www.w3.org/2000/svg"
   id="svg16"
   preserveAspectRatio="xMidYMid meet"
   viewBox="0 0 251.31305 136.09337"
   height="136.09337pt"
   width="251.31305pt"
   version="1.0">
  <defs
     id="defs20">
    <filter
       height="4.1026454"
       y="-1.5513228"
       width="1.760519"
       x="-0.38025951"
       id="filter4597"
       style="color-interpolation-filters:sRGB">
      <feGaussianBlur
         id="feGaussianBlur4599"
         stdDeviation="24.962749" />
    </filter>
  </defs>
  <metadata
     id="metadata2">
Created by potrace 1.15, written by Peter Selinger 2001-2017
<rdf:RDF>
  <cc:Work
     rdf:about="">
    <dc:format>image/svg+xml</dc:format>
    <dc:type
       rdf:resource="http://purl.org/dc/dcmitype/StillImage" />
    <dc:title></dc:title>
  </cc:Work>
</rdf:RDF>
</metadata>
  <path
     d="m 192.03833,13.070811 c -30.40051,7.632202 -55.92546,14.142021 -56.92925,14.142021 -1.00379,0.224476 -2.43778,-3.816101 -3.29817,-8.754585 -1.43399,-8.305631 -1.86418,-8.9790612 -6.59634,-8.9790612 -5.59254,0 -5.44914,-0.897906 -2.58117,14.8154512 0.57359,3.142671 0,5.16296 -1.43399,6.060866 -1.86418,1.122383 -2.72457,-0.897906 -4.01516,-8.530108 -1.72078,-9.652491 -2.00758,-10.101444 -7.16993,-10.101444 h -5.30575 l 2.00758,9.203538 c 2.72458,11.897256 2.72458,13.244115 -0.43019,13.244115 -1.86418,0 -3.15477,-2.693718 -4.44536,-8.979061 -1.57738,-8.305631 -2.15098,-8.979061 -6.739733,-8.979061 -4.588756,0 -5.018952,0.448953 -4.015161,4.938484 2.294378,11.448303 3.441566,15.48888 5.16235,16.16231 1.00379,0.448953 6.883134,3.367148 13.049274,6.509819 l 11.32849,5.611913 63.23879,-12.121732 c 34.84586,-6.50982 63.81238,-12.121733 64.38597,-12.121733 0.4302,0 1.57739,-3.142671 2.43778,-6.734296 1.43398,-6.734296 0.2868,-16.3867862 -2.29438,-18.4070752 -0.57359,-0.673429 -25.95515,5.387437 -56.35565,13.0196392 z"
     id="path4"
     style="fill:#17486b;stroke:none;stroke-width:0.17941466;fill-opacity:1" />
  <path
     d="m 182.00042,41.130377 c -30.4005,5.83639 -55.78205,10.774873 -56.64245,10.99935 -0.71699,0 1.00379,2.244765 4.01516,4.714007 5.30575,4.489531 5.44915,4.489531 50.90651,-0.448953 l 45.45736,-4.938484 8.03032,-7.407725 c 4.44536,-4.265054 8.89072,-9.203538 9.89451,-10.99935 2.43777,-4.714007 2.86797,-4.714007 -61.66141,8.081155 z"
     id="path6"
     style="fill:#91160d;stroke:none;stroke-width:0.17941466;fill-opacity:1" />
  <path
     d="M 52.941676,39.55904 C 34.730052,45.619906 16.518429,60.435357 5.6201346,77.944527 L 0.60118343,86.025687 10.065491,80.413769 C 45.484948,59.537451 79.470418,64.475935 123.63719,96.800557 162.78501,125.53355 200.64224,121.2685 225.737,85.352252 c 4.44536,-6.285343 8.60392,-13.244115 9.46431,-15.713357 1.29059,-3.816101 0.57359,-3.591624 -5.87934,1.571336 -11.0417,8.754585 -27.38914,14.590976 -40.86861,14.590976 -16.49084,0 -35.27606,-7.85668 -57.93304,-24.69242 C 120.19562,53.701062 106.71615,45.39543 100.55001,42.926188 86.066754,37.089798 64.987159,35.518463 52.941676,39.55904 Z"
     id="path8"
     style="fill:#17486b;stroke:none;stroke-width:0.17941466;fill-opacity:1" />
  <path
     d="m 184.1514,59.088499 c -18.06822,2.244766 -35.56285,4.040578 -38.71762,4.265054 l -5.73595,0.448953 6.30954,4.489531 c 6.02275,4.265054 7.60013,4.489531 30.8307,2.469242 20.21921,-2.020289 25.95515,-3.142672 32.40809,-7.407726 7.60013,-4.938483 12.18888,-9.428014 9.32091,-8.754584 -0.86039,0.224476 -16.20404,2.244765 -34.41567,4.48953 z"
     id="path10"
     style="fill:#17486b;stroke:none;stroke-width:0.17941466;fill-opacity:1" />
  <path
     d="M 41.141669,82.627172 C 28.3803,86.371295 8.3447082,96.576077 1.3181763,105.55514 c -3.0113708,3.8161 -1.43398597,3.36715 10.7548957,-2.91819 19.215413,-9.876973 37.713834,-14.590983 59.367024,-14.815453 l 18.068225,-0.22448 -5.361083,-2.724626 C 72.014877,79.807749 48.753308,80.772611 41.141669,82.627172 Z"
     id="path12"
     style="fill:#17486b;stroke:none;stroke-width:0.17941466;fill-opacity:1" />
  <path
     id="path4557"
     d="m 107.94062,42.99321 -12.370916,-6.2308 -0.618847,-1.145455 c -0.792278,-1.466466 -1.743045,-4.919276 -3.059138,-11.109549 -1.22868,-5.7791 -1.323952,-6.988971 -0.59676,-7.57782 0.928733,-0.752043 5.628488,-0.882093 6.965295,-0.192741 1.599728,0.824927 2.062256,1.876816 3.246526,7.383219 1.43827,6.68745 2.43318,9.168777 3.97055,9.902693 0.89285,0.426233 2.20541,0.248442 2.8383,-0.384458 0.5332,-0.533193 0.57152,-2.470278 0.10137,-5.123163 -0.30628,-1.728275 -3.23308,-15.346063 -3.48352,-16.208182 -0.10775,-0.370877 0.18072,-0.400882 3.85079,-0.400553 6.40357,5.73e-4 6.42675,0.0277 8.22231,9.621463 1.41649,7.568357 2.0113,9.163637 3.4167,9.163637 0.7676,0 1.8106,-0.996342 2.21761,-2.118414 0.46059,-1.269773 0.33825,-2.872376 -0.62601,-8.200156 -0.51216,-2.829787 -0.98598,-6.175977 -1.05294,-7.435977 -0.17462,-3.2858072 -0.26929,-3.2072722 3.8664,-3.2072722 3.65723,0 4.13901,0.150104 5.00333,1.5588112 0.59592,0.971272 0.75094,1.554885 1.81598,6.836338 0.91774,4.551012 1.95545,7.917446 2.69114,8.730384 0.33621,0.371505 0.58625,0.419772 1.52766,0.294891 0.6191,-0.08213 18.5577,-4.515855 39.86354,-9.852726 45.55887,-11.4119792 55.84925,-13.9095392 66.63417,-16.1726702 5.18749,-1.088555 5.91679,-1.123102 6.55594,-0.310561 1.67595,2.130628 2.69288,9.1911212 2.10428,14.6098882 -0.28197,2.59589 -1.49985,7.269983 -2.30599,8.850141 -0.27717,0.543312 -0.63261,0.91914 -0.86928,0.91914 -0.22021,0 -6.9448,1.24064 -14.94353,2.756975 -7.99873,1.516336 -22.48114,4.25367 -32.18314,6.082965 -9.702,1.829299 -31.59404,6.000932 -48.64897,9.2703 -17.05494,3.269368 -31.1784,5.938939 -31.38546,5.93238 -0.20707,-0.0065 -5.94339,-2.815789 -12.74739,-6.242728 z"
     style="fill:#17486b;fill-opacity:0;stroke:none;stroke-width:0.22909091" />
  <path
     id="path4559"
     d="m 107.94062,42.99321 -12.370916,-6.2308 -0.618847,-1.145455 c -0.792278,-1.466466 -1.743045,-4.919276 -3.059138,-11.109549 -1.22868,-5.7791 -1.323952,-6.988971 -0.59676,-7.57782 0.928733,-0.752043 5.628488,-0.882093 6.965295,-0.192741 1.599728,0.824927 2.062256,1.876816 3.246526,7.383219 1.43827,6.68745 2.43318,9.168777 3.97055,9.902693 0.89285,0.426233 2.20541,0.248442 2.8383,-0.384458 0.5332,-0.533193 0.57152,-2.470278 0.10137,-5.123163 -0.30628,-1.728275 -3.23308,-15.346063 -3.48352,-16.208182 -0.10775,-0.370877 0.18072,-0.400882 3.85079,-0.400553 6.40357,5.73e-4 6.42675,0.0277 8.22231,9.621463 1.41649,7.568357 2.0113,9.163637 3.4167,9.163637 0.7676,0 1.8106,-0.996342 2.21761,-2.118414 0.46059,-1.269773 0.33825,-2.872376 -0.62601,-8.200156 -0.51216,-2.829787 -0.98598,-6.175977 -1.05294,-7.435977 -0.17462,-3.2858072 -0.26929,-3.2072722 3.8664,-3.2072722 3.65723,0 4.13901,0.150104 5.00333,1.5588112 0.59592,0.971272 0.75094,1.554885 1.81598,6.836338 0.91774,4.551012 1.95545,7.917446 2.69114,8.730384 0.33621,0.371505 0.58625,0.419772 1.52766,0.294891 0.6191,-0.08213 18.5577,-4.515855 39.86354,-9.852726 45.55887,-11.4119792 55.84925,-13.9095392 66.63417,-16.1726702 5.18749,-1.088555 5.91679,-1.123102 6.55594,-0.310561 1.67595,2.130628 2.69288,9.1911212 2.10428,14.6098882 -0.28197,2.59589 -1.49985,7.269983 -2.30599,8.850141 -0.27717,0.543312 -0.63261,0.91914 -0.86928,0.91914 -0.22021,0 -6.9448,1.24064 -14.94353,2.756975 -7.99873,1.516336 -22.48114,4.25367 -32.18314,6.082965 -9.702,1.829299 -31.59404,6.000932 -48.64897,9.2703 -17.05494,3.269368 -31.1784,5.938939 -31.38546,5.93238 -0.20707,-0.0065 -5.94339,-2.815789 -12.74739,-6.242728 z"
     style="fill:#17486b;fill-opacity:0;stroke:none;stroke-width:0.22909091" />
  <path
     id="path4561"
     d="m 107.94062,42.99321 -12.370916,-6.2308 -0.618847,-1.145455 c -0.792278,-1.466466 -1.743045,-4.919276 -3.059138,-11.109549 -1.22868,-5.7791 -1.323952,-6.988971 -0.59676,-7.57782 0.928733,-0.752043 5.628488,-0.882093 6.965295,-0.192741 1.599728,0.824927 2.062256,1.876816 3.246526,7.383219 1.43827,6.68745 2.43318,9.168777 3.97055,9.902693 0.89285,0.426233 2.20541,0.248442 2.8383,-0.384458 0.5332,-0.533193 0.57152,-2.470278 0.10137,-5.123163 -0.30628,-1.728275 -3.23308,-15.346063 -3.48352,-16.208182 -0.10775,-0.370877 0.18072,-0.400882 3.85079,-0.400553 6.40357,5.73e-4 6.42675,0.0277 8.22231,9.621463 1.41649,7.568357 2.0113,9.163637 3.4167,9.163637 0.7676,0 1.8106,-0.996342 2.21761,-2.118414 0.46059,-1.269773 0.33825,-2.872376 -0.62601,-8.200156 -0.51216,-2.829787 -0.98598,-6.175977 -1.05294,-7.435977 -0.17462,-3.2858072 -0.26929,-3.2072722 3.8664,-3.2072722 3.65723,0 4.13901,0.150104 5.00333,1.5588112 0.59592,0.971272 0.75094,1.554885 1.81598,6.836338 0.91774,4.551012 1.95545,7.917446 2.69114,8.730384 0.33621,0.371505 0.58625,0.419772 1.52766,0.294891 0.6191,-0.08213 18.5577,-4.515855 39.86354,-9.852726 45.55887,-11.4119792 55.84925,-13.9095392 66.63417,-16.1726702 5.18749,-1.088555 5.91679,-1.123102 6.55594,-0.310561 1.67595,2.130628 2.69288,9.1911212 2.10428,14.6098882 -0.28197,2.59589 -1.49985,7.269983 -2.30599,8.850141 -0.27717,0.543312 -0.63261,0.91914 -0.86928,0.91914 -0.22021,0 -6.9448,1.24064 -14.94353,2.756975 -7.99873,1.516336 -22.48114,4.25367 -32.18314,6.082965 -9.702,1.829299 -31.59404,6.000932 -48.64897,9.2703 -17.05494,3.269368 -31.1784,5.938939 -31.38546,5.93238 -0.20707,-0.0065 -5.94339,-2.815789 -12.74739,-6.242728 z"
     style="fill:#17486b;fill-opacity:0;stroke:none;stroke-width:0.22909091" />
  <path
     id="path4567"
     d="m 154.24195,71.701323 c -3.29736,-0.41781 -4.97552,-1.240986 -10.43129,-5.116807 l -3.71822,-2.641444 0.99136,-0.123555 c 0.54525,-0.06796 2.95009,-0.285306 5.34409,-0.483001 11.42083,-0.943131 45.93987,-5.007135 66.31453,-7.80736 3.20898,-0.441033 6.04398,-0.771507 6.3,-0.734387 1.10649,0.160437 -3.7568,4.393807 -9.15635,7.97035 -6.52066,4.319141 -10.98634,5.497925 -27.72,7.317119 -12.58579,1.368258 -24.46694,2.057147 -27.92412,1.619085 z"
     style="fill:#17486b;fill-opacity:0;stroke:none;stroke-width:0.22909091" />
  <path
     id="path4573"
     d="M 162.19371,114.32092 C 149.79654,111.78757 139.38919,107.14152 126.64662,98.451967 117.22997,92.030477 108.909,86.537457 105.6497,84.591032 91.826702,76.336037 78.841321,71.166819 66.131523,68.859633 c -4.84481,-0.879469 -7.847056,-1.093062 -13.86,-0.98606 -3.024,0.05381 -6.090955,0.106365 -6.815455,0.116784 -0.7245,0.01042 -1.317273,0.113143 -1.317273,0.228275 0,0.115132 -0.255942,0.160405 -0.568764,0.100605 -1.206308,-0.2306 -8.588048,1.281482 -13.290681,2.722475 -6.159133,1.8873 -13.407444,5.250045 -22.5660097,10.469152 -3.0870004,1.759163 -5.6492844,3.16404 -5.6939649,3.121958 -0.2499238,-0.235418 5.5353714,-9.17445 8.4449866,-13.048595 5.334956,-7.103486 13.641771,-15.177175 21.14839,-20.554874 6.261362,-4.485602 14.391668,-8.738879 20.971791,-10.971151 5.439306,-1.845257 10.192026,-2.378158 19.617889,-2.199666 6.901637,0.130692 9.675475,0.439298 16.036367,1.784138 10.1109,2.137682 16.833351,5.187677 30.094601,13.654003 3.95553,2.525305 6.77774,4.442532 18.40982,12.506418 8.31646,5.765352 17.44413,10.952912 24.73015,14.054979 6.58753,2.80467 16.13159,5.469645 20.6927,5.777978 1.97276,0.133355 7.96615,0.172305 11.11091,0.07225 5.22555,-0.166368 15.03541,-2.756853 21.69188,-5.728195 2.74608,-1.2258 7.14016,-3.56685 7.51804,-4.005398 0.12645,-0.14676 0.36579,-0.295072 0.53186,-0.32958 0.47384,-0.09846 1.41458,-0.768832 1.41458,-1.008037 0,-0.118943 0.0901,-0.16056 0.20027,-0.09249 0.11015,0.0681 0.46461,-0.1212 0.78768,-0.420617 0.32307,-0.299415 0.62253,-0.509278 0.66544,-0.466359 0.0429,0.04291 1.31215,-0.806317 2.8205,-1.887191 5.15579,-3.694568 6.31593,-4.478198 6.4425,-4.351623 0.40712,0.407122 -1.79795,5.166458 -4.17676,9.014935 -5.93468,9.601195 -10.73045,15.799185 -16.6417,21.507455 -7.90977,7.638188 -16.39837,12.660618 -25.89781,15.322908 -5.40591,1.51506 -5.91068,1.57077 -14.94375,1.64913 l -8.24727,0.0716 z"
     style="fill:#17486b;fill-opacity:0;stroke:none;stroke-width:0.22909091" />
  <path
     id="path4575"
     d="M 162.19371,114.32092 C 149.79654,111.78757 139.38919,107.14152 126.64662,98.451967 117.22997,92.030477 108.909,86.537457 105.6497,84.591032 91.826702,76.336037 78.841321,71.166819 66.131523,68.859633 c -4.84481,-0.879469 -7.847056,-1.093062 -13.86,-0.98606 -3.024,0.05381 -6.090955,0.106365 -6.815455,0.116784 -0.7245,0.01042 -1.317273,0.113143 -1.317273,0.228275 0,0.115132 -0.255942,0.160405 -0.568764,0.100605 -1.206308,-0.2306 -8.588048,1.281482 -13.290681,2.722475 -6.159133,1.8873 -13.407444,5.250045 -22.5660097,10.469152 -3.0870004,1.759163 -5.6492844,3.16404 -5.6939649,3.121958 -0.2499238,-0.235418 5.5353714,-9.17445 8.4449866,-13.048595 5.334956,-7.103486 13.641771,-15.177175 21.14839,-20.554874 6.261362,-4.485602 14.391668,-8.738879 20.971791,-10.971151 5.439306,-1.845257 10.192026,-2.378158 19.617889,-2.199666 6.901637,0.130692 9.675475,0.439298 16.036367,1.784138 10.1109,2.137682 16.833351,5.187677 30.094601,13.654003 3.95553,2.525305 6.77774,4.442532 18.40982,12.506418 8.31646,5.765352 17.44413,10.952912 24.73015,14.054979 6.58753,2.80467 16.13159,5.469645 20.6927,5.777978 1.97276,0.133355 7.96615,0.172305 11.11091,0.07225 5.22555,-0.166368 15.03541,-2.756853 21.69188,-5.728195 2.74608,-1.2258 7.14016,-3.56685 7.51804,-4.005398 0.12645,-0.14676 0.36579,-0.295072 0.53186,-0.32958 0.47384,-0.09846 1.41458,-0.768832 1.41458,-1.008037 0,-0.118943 0.0901,-0.16056 0.20027,-0.09249 0.11015,0.0681 0.46461,-0.1212 0.78768,-0.420617 0.32307,-0.299415 0.62253,-0.509278 0.66544,-0.466359 0.0429,0.04291 1.31215,-0.806317 2.8205,-1.887191 5.15579,-3.694568 6.31593,-4.478198 6.4425,-4.351623 0.40712,0.407122 -1.79795,5.166458 -4.17676,9.014935 -5.93468,9.601195 -10.73045,15.799185 -16.6417,21.507455 -7.90977,7.638188 -16.39837,12.660618 -25.89781,15.322908 -5.40591,1.51506 -5.91068,1.57077 -14.94375,1.64913 l -8.24727,0.0716 z"
     style="fill:#17486b;fill-opacity:0;stroke:none;stroke-width:0.22909091" />
  <path
     id="path4587"
     d="m 161.95068,114.17122 c -10.33645,-2.2171 -18.90487,-5.65803 -28.50681,-11.44788 -1.17479,-0.70838 -6.72353,-4.354323 -12.33053,-8.102083 C 109.21974,86.671477 107.46908,85.54531 103.01516,82.97899 88.895897,74.843583 74.232596,69.576615 61.670578,68.128272 58.14551,67.72185 46.080789,67.789136 42.535159,68.234994 39.749771,68.585254 33.769343,69.913179 30.460755,70.916057 24.591943,72.694973 17.847256,75.791988 8.3090594,81.08764 5.0723363,82.884685 2.3805608,84.311448 2.3273363,84.258228 2.1925646,84.123453 6.05752,77.993073 8.3760426,74.6641 13.515523,67.284748 20.353177,60.059534 28.033761,53.89218 c 8.291057,-6.65755 19.59892,-12.611692 27.903216,-14.692404 3.777157,-0.946399 5.37952,-1.062991 14.547273,-1.058502 9.738924,0.0048 10.651134,0.08797 17.869089,1.629823 12.248411,2.616423 20.722331,7.023551 42.725461,22.220699 13.35941,9.227099 18.83473,12.529324 27.72,16.718254 6.07403,2.86359 14.81762,5.65524 21.19091,6.765848 2.78412,0.485169 14.64852,0.410979 17.41091,-0.108855 5.09725,-0.959228 11.77417,-2.899508 16.03636,-4.660095 2.2921,-0.9468 7.23574,-3.432863 8.70546,-4.37781 3.5453,-2.279429 6.04609,-3.957971 9.27818,-6.227543 2.68586,-1.886014 3.68494,-2.477247 3.73842,-2.212278 0.12455,0.617283 -1.73702,4.54307 -3.7598,7.928913 -11.80554,19.760727 -24.99709,31.62759 -40.87135,36.76707 -5.31968,1.72232 -6.8761,1.97784 -12.71455,2.08743 -2.898,0.0544 -6.87139,0.13137 -8.82976,0.17108 -3.30387,0.067 -3.81107,0.0185 -7.0329,-0.67259 z"
     style="fill:#91160d;fill-opacity:0;stroke:none;stroke-width:0.22909091" />
  <path
     transform="matrix(0.75000001,0,0,0.75000001,-0.50984947,-0.61721248)"
     id="path4589"
     d="m 178.93431,79.654166 c -2.24813,-0.879538 -4.78934,-2.728363 -7.90786,-5.753261 -2.22151,-2.154808 -2.80653,-2.884202 -2.48417,-3.097196 0.23191,-0.153234 5.11154,-1.193061 10.84363,-2.310726 32.70039,-6.376055 46.75032,-9.151524 49.06198,-9.691863 1.428,-0.333788 4.28959,-0.870121 6.35908,-1.19185 3.30374,-0.513608 5.10208,-0.882768 10.28819,-2.111931 0.672,-0.159271 1.84037,-0.376416 2.59637,-0.482544 1.65724,-0.232645 13.95577,-2.573845 31.15636,-5.931056 35.04095,-6.839292 45.48805,-8.405408 46.87104,-7.0264 0.41827,0.417063 0.40375,0.590635 -0.14054,1.68 -0.33386,0.668185 -1.31726,2.177063 -2.18534,3.353063 -1.84057,2.493437 -16.7677,17.478464 -20.078,20.155868 l -2.26011,1.828 -8.4308,0.981226 c -4.63694,0.539675 -11.04243,1.265195 -14.23443,1.612267 -3.192,0.347073 -7.52182,0.832838 -9.62182,1.07948 -2.1,0.246639 -5.39891,0.586763 -7.33091,0.755829 -1.932,0.169063 -5.23091,0.516353 -7.33091,0.771752 -3.60446,0.438367 -9.34323,1.059243 -15.88364,1.718448 -1.596,0.160861 -9.49963,0.973126 -17.56363,1.805035 -20.14891,2.078624 -25.06067,2.43614 -33.24221,2.419627 -6.06721,-0.01225 -7.27833,-0.09274 -8.48228,-0.563768 z"
     style="fill:#91160d;fill-opacity:0;stroke:none;stroke-width:0.30545455;filter:url(#filter4597)" />
  <flowRoot
     transform="matrix(4.1318552,0,0,4.411787,-137.71069,-95.378039)"
     style="font-style:italic;font-weight:normal;font-size:5.33337699px;line-height:1.25;font-family:sans-serif;letter-spacing:0px;word-spacing:0px;fill:#000000;fill-opacity:1;stroke:none;image-rendering:auto;-inkscape-font-specification:'sans-serif, Italic';font-stretch:normal;font-variant:normal;text-anchor:start;text-align:start;writing-mode:lr;font-variant-ligatures:normal;font-variant-caps:normal;font-variant-numeric:normal;font-feature-settings:normal;"
     id="flowRoot4620"
     xml:space="preserve"><flowRegion
       style="-inkscape-font-specification:'sans-serif, Italic';font-family:sans-serif;font-weight:normal;font-style:italic;font-stretch:normal;font-variant:normal;font-size:5.33337699px;text-anchor:start;text-align:start;writing-mode:lr;font-variant-ligatures:normal;font-variant-caps:normal;font-variant-numeric:normal;font-feature-settings:normal;"
       id="flowRegion4622"><rect
         style="-inkscape-font-specification:'sans-serif, Italic';font-family:sans-serif;font-weight:normal;font-style:italic;font-stretch:normal;font-variant:normal;font-size:5.33337699px;text-anchor:start;text-align:start;writing-mode:lr;font-variant-ligatures:normal;font-variant-caps:normal;font-variant-numeric:normal;font-feature-settings:normal;"
         y="47.731781"
         x="36.062447"
         height="46.315498"
         width="237.58789"
         id="rect4624" /></flowRegion><flowPara
       style="font-style:italic;font-variant:normal;font-weight:normal;font-stretch:normal;font-family:sans-serif;-inkscape-font-specification:'sans-serif, Italic';fill:#17486b;fill-opacity:1;font-size:5.33337699px;text-anchor:start;text-align:start;writing-mode:lr;font-variant-ligatures:normal;font-variant-caps:normal;font-variant-numeric:normal;font-feature-settings:normal;"
       id="flowPara4626">SEA SAFARI LIETUVA</flowPara></flowRoot>  <flowRoot
     transform="matrix(0.75000001,0,0,0.75000001,-0.50984947,-0.61721248)"
     style="font-style:normal;font-weight:normal;font-size:5.33333349px;line-height:1.25;font-family:sans-serif;letter-spacing:0px;word-spacing:0px;fill:#000000;fill-opacity:1;stroke:none"
     id="flowRoot4628"
     xml:space="preserve"><flowRegion
       id="flowRegion4630"><rect
         y="67.884323"
         x="217.08179"
         height="26.516504"
         width="21.566757"
         id="rect4632" /></flowRegion><flowPara
       id="flowPara4634"></flowPara></flowRoot></svg>
