<?xml version="1.0" standalone="no"?>
<!DOCTYPE svg PUBLIC "-//W3C//DTD SVG 20010904//EN"
 "http://www.w3.org/TR/2001/REC-SVG-20010904/DTD/svg10.dtd">
<svg version="1.0" xmlns="http://www.w3.org/2000/svg"
 width="2560.000000pt" height="2560.000000pt" viewBox="0 0 2560.000000 2560.000000"
 preserveAspectRatio="xMidYMid meet">
<metadata>
Created by potrace 1.15, written by Peter Selinger 2001-2017
</metadata>
<g transform="translate(0.000000,2560.000000) scale(0.100000,-0.100000)"
fill="#91160d" stroke="none">
<path d="M11600 21253 c-14 -2 -83 -13 -155 -25 -313 -50 -655 -173 -948 -341
-742 -423 -1272 -1153 -1437 -1976 -46 -227 -52 -304 -57 -713 l-5 -398 -1672
0 c-1377 0 -1689 -3 -1776 -14 -473 -64 -887 -236 -1260 -525 -110 -84 -337
-312 -422 -421 -257 -332 -426 -704 -505 -1112 -17 -89 -18 -297 -18 -4658 l0
-4565 23 -113 c106 -523 347 -973 715 -1335 352 -346 815 -591 1291 -682 243
-47 -111 -45 7421 -45 7611 0 7187 -3 7441 49 236 48 421 113 641 225 786 399
1306 1167 1382 2041 15 163 15 8614 1 8805 -91 1218 -1011 2185 -2220 2336
-95 12 -396 14 -1781 14 l-1667 0 -5 398 c-5 417 -12 492 -61 731 -77 375
-228 728 -444 1046 -275 403 -651 740 -1067 956 -300 156 -535 238 -869 302
-109 21 -131 21 -1316 23 -663 1 -1216 0 -1230 -3z m2302 -879 c319 -43 628
-160 882 -332 405 -273 692 -650 840 -1102 85 -261 106 -433 106 -867 l0 -293
-2936 0 -2936 0 5 363 c3 265 9 388 20 459 99 597 413 1087 922 1439 110 76
304 175 440 224 146 53 335 97 510 118 17 2 481 5 1032 6 857 1 1019 -1 1115
-15z m5923 -3434 c405 -26 757 -178 1049 -451 304 -284 488 -666 526 -1090 14
-163 14 -8565 -1 -8697 -35 -323 -150 -608 -346 -860 -282 -362 -688 -589
-1148 -642 -125 -14 -14095 -14 -14220 0 -398 46 -751 220 -1025 506 -226 235
-359 482 -437 810 l-28 119 0 4430 c0 4297 1 4433 19 4520 156 750 780 1301
1531 1354 160 12 13910 13 14080 1z"/>
<path d="M10680 14230 l0 -1050 -1050 0 -1050 0 0 -2110 0 -2110 1050 0 1050
0 2 -1052 3 -1053 2113 -3 2112 -2 0 1055 0 1055 1050 0 1050 0 0 2110 0 2110
-1050 0 -1050 0 0 1050 0 1050 -2115 0 -2115 0 0 -1050z m3370 -860 l0 -1050
1050 0 1050 0 0 -1255 0 -1255 -1050 0 -1050 0 0 -1050 0 -1050 -1250 0 -1250
0 0 1050 0 1050 -1055 0 -1055 0 0 1255 0 1255 1055 0 1055 0 0 1050 0 1050
1250 0 1250 0 0 -1050z"/>
</g>
</svg>
