<?xml version="1.0" standalone="no"?>
<!DOCTYPE svg PUBLIC "-//W3C//DTD SVG 20010904//EN"
 "http://www.w3.org/TR/2001/REC-SVG-20010904/DTD/svg10.dtd">
<svg version="1.0" xmlns="http://www.w3.org/2000/svg"
 width="2560.000000pt" height="2560.000000pt" viewBox="0 0 2560.000000 2560.000000"
 preserveAspectRatio="xMidYMid meet">
<metadata>
Created by potrace 1.15, written by Peter Selinger 2001-2017
</metadata>
<g transform="translate(0.000000,2560.000000) scale(0.100000,-0.100000)"
fill="#91160d" stroke="none">
<path d="M12480 22874 c-19 -3 -102 -14 -185 -25 -574 -78 -1017 -285 -1204
-565 -60 -88 -86 -157 -106 -272 -85 -490 -461 -794 -1115 -902 -356 -59 -625
-142 -889 -275 -256 -128 -434 -257 -647 -470 -244 -243 -392 -451 -572 -805
-52 -102 -189 -364 -304 -583 -329 -625 -584 -1122 -924 -1802 l-316 -629 4
-121 3 -120 56 -111 c185 -364 476 -648 883 -860 214 -111 426 -192 680 -258
287 -75 365 -81 473 -32 126 58 535 515 911 1019 69 92 126 166 128 165 1 -2
12 -91 24 -198 79 -734 236 -1787 411 -2760 22 -124 45 -253 51 -287 11 -61
10 -65 -60 -300 -573 -1919 -1062 -4796 -1441 -8488 -71 -686 -72 -729 -34
-816 32 -72 88 -125 205 -195 362 -214 736 -353 1164 -431 146 -27 157 -27
554 -28 378 0 414 2 545 23 429 72 826 195 1245 387 148 68 201 102 245 163
50 70 64 127 70 297 13 351 17 436 26 550 33 408 96 788 184 1121 57 214 166
520 232 648 l20 39 46 -106 c225 -513 361 -1162 397 -1892 6 -121 15 -292 19
-380 7 -144 10 -166 35 -216 40 -85 98 -131 260 -209 415 -201 870 -341 1309
-405 157 -23 202 -25 507 -25 281 0 356 3 466 20 386 57 715 163 1064 341 280
143 356 204 396 322 27 82 29 65 -102 1292 -62 584 -179 1581 -229 1950 -9 61
-36 263 -61 450 -307 2309 -719 4393 -1130 5713 l-36 113 66 377 c197 1132
322 1983 401 2714 12 120 25 221 27 223 2 3 44 -50 92 -117 274 -373 517 -668
731 -886 251 -256 292 -265 730 -145 353 96 624 215 885 388 300 199 538 474
669 772 73 167 66 229 -53 468 -151 302 -735 1448 -826 1620 -20 39 -155 300
-300 580 -458 889 -483 934 -660 1170 -283 376 -639 654 -1060 828 -198 82
-438 150 -642 182 -293 46 -446 89 -623 176 -193 95 -338 224 -442 395 -73
119 -101 200 -143 417 -7 32 -29 93 -51 135 -161 320 -604 545 -1249 634 -114
16 -212 21 -460 23 -173 2 -331 1 -350 -1z m540 -699 c323 -17 683 -114 841
-226 29 -20 29 -22 13 -41 -29 -31 -206 -115 -312 -147 -453 -139 -1093 -139
-1531 1 -108 34 -261 105 -305 141 l-30 24 70 41 c194 116 512 194 859 211
147 7 180 7 395 -4z m-1367 -1024 c183 -73 415 -130 677 -168 180 -25 750 -26
929 0 339 49 604 123 812 227 54 28 99 46 99 41 0 -20 144 -193 232 -277 95
-92 224 -193 298 -235 22 -13 40 -29 40 -37 0 -7 -11 -57 -24 -110 -62 -246
-96 -495 -96 -707 0 -166 10 -261 42 -398 l20 -88 -81 -242 c-163 -491 -279
-1020 -410 -1882 -47 -304 -157 -1077 -201 -1415 l-31 -235 21 -405 c40 -774
93 -1637 145 -2355 34 -469 84 -1103 90 -1146 4 -33 -1 -43 -62 -115 -91 -108
-298 -319 -412 -421 -250 -223 -561 -421 -843 -534 l-107 -43 -88 33 c-48 19
-149 64 -223 102 -365 184 -710 466 -1044 852 l-67 78 6 52 c47 423 191 2557
241 3572 l17 340 -72 505 c-177 1250 -251 1712 -347 2159 -76 356 -180 739
-272 998 -37 104 -38 110 -26 158 35 131 46 267 41 480 -6 229 -18 324 -74
570 -20 88 -37 169 -37 181 -1 16 24 38 104 92 181 122 357 293 457 443 l24
36 72 -38 c40 -20 107 -51 150 -68z m4082 -757 c350 -66 677 -217 925 -429
139 -119 251 -248 368 -422 85 -127 122 -194 287 -518 81 -159 187 -364 235
-455 162 -306 586 -1131 842 -1636 l254 -502 -33 -48 c-18 -27 -50 -69 -71
-94 l-39 -44 -102 202 c-471 927 -997 1543 -1606 1874 -179 98 -455 205 -576
224 -41 7 -61 24 -305 268 -325 326 -446 484 -530 690 -57 142 -69 211 -69
391 0 169 9 232 56 436 l30 126 97 -18 c53 -10 160 -30 237 -45z m-5523 -69
c64 -281 74 -514 28 -695 -64 -256 -241 -504 -633 -886 -175 -170 -201 -192
-237 -198 -55 -9 -284 -85 -391 -130 -108 -46 -272 -137 -399 -222 -521 -348
-1006 -954 -1408 -1761 -48 -95 -90 -173 -94 -173 -10 0 -128 158 -128 171 0
27 699 1404 1115 2194 139 264 274 523 300 575 249 497 538 812 924 1004 191
95 348 148 566 190 72 14 164 32 205 40 128 25 121 30 152 -109z m5291 -2091
c189 -183 312 -290 360 -313 24 -12 86 -30 138 -41 279 -60 547 -196 791 -399
126 -106 324 -312 432 -451 218 -280 481 -723 650 -1093 l34 -75 -104 -36
c-57 -20 -143 -47 -191 -61 l-88 -26 -20 24 c-11 13 -56 64 -100 113 -238 264
-592 740 -1028 1384 -91 135 -180 259 -199 277 -46 45 -131 81 -208 89 -52 5
-77 2 -129 -16 -177 -60 -251 -178 -251 -405 0 -684 -192 -2189 -501 -3929
l-49 -280 -91 -175 c-50 -97 -95 -180 -100 -186 -5 -5 -9 3 -9 20 0 17 -7 116
-15 220 -37 476 -104 1552 -145 2329 l-21 388 27 202 c53 407 196 1390 245
1686 69 422 175 938 220 1077 l10 31 108 -116 c59 -65 165 -172 234 -238z
m-5025 151 c111 -465 185 -903 357 -2105 l97 -675 -17 -330 c-32 -659 -99
-1715 -152 -2427 l-16 -228 -40 73 c-22 39 -68 131 -102 202 l-63 130 -61 345
c-295 1668 -457 2926 -476 3686 -3 126 -11 257 -16 290 -22 128 -111 226 -240
265 -117 36 -241 9 -333 -71 -20 -18 -100 -128 -178 -244 -435 -649 -815
-1151 -1134 -1498 -52 -57 -52 -57 -90 -47 -64 17 -308 99 -324 109 -13 8 1
42 84 207 263 528 531 924 828 1225 328 332 623 502 1033 597 64 15 105 31
145 58 30 21 188 170 350 333 162 162 298 291 301 285 4 -5 25 -86 47 -180z
m15 -6694 c53 -80 111 -165 128 -188 l31 -41 -16 -189 c-214 -2444 -561 -5240
-941 -7581 -19 -117 -35 -215 -35 -218 0 -9 -34 -2 -152 32 -141 41 -318 109
-430 165 -92 46 -86 15 -58 300 243 2457 606 4955 965 6644 98 463 286 1254
316 1334 10 25 11 24 52 -43 23 -37 86 -134 140 -215z m4845 82 c451 -1743
858 -4274 1187 -7393 68 -650 65 -621 70 -646 4 -18 -8 -27 -83 -62 -120 -56
-200 -89 -312 -127 -110 -38 -268 -80 -275 -74 -15 16 -226 1397 -354 2319
-249 1794 -475 3791 -612 5415 l-22 260 84 117 c46 64 122 178 169 252 47 75
88 136 91 136 3 0 29 -89 57 -197z m-1003 -1413 c200 -2109 457 -4182 776
-6245 33 -214 71 -456 84 -536 14 -81 25 -152 25 -158 0 -15 -53 -14 -195 4
-320 42 -605 119 -946 256 l-126 51 -7 137 c-62 1240 -318 2158 -800 2871
-126 185 -188 231 -332 238 -165 9 -241 -36 -361 -214 -422 -625 -673 -1405
-773 -2399 -17 -177 -40 -514 -40 -602 0 -31 -1 -32 -152 -91 -274 -108 -442
-158 -705 -211 -150 -30 -407 -60 -419 -49 -3 4 13 120 35 260 350 2196 674
4739 856 6723 14 154 29 293 33 308 l7 29 100 -89 c373 -330 752 -551 1223
-714 176 -61 220 -55 533 64 343 132 784 411 1079 685 36 33 66 59 67 58 1 -1
18 -170 38 -376z"/>
</g>
</svg>
